<svg xmlns="http://www.w3.org/2000/svg" xmlns:xlink="http://www.w3.org/1999/xlink" version="1.1" id="Layer_1" x="0px" y="0px" width="536.043px" height="534px" viewBox="0 0 536.043 534" enable-background="new 0 0 536.043 534" xml:space="preserve">
<path fill="#F1F2F2" d="M499.274 267.003c0 127.717-103.541 231.248-231.253 231.248c-127.717 0-231.253-103.53-231.253-231.248 S140.305 35.8 268 35.75C395.733 35.8 499.3 139.3 499.3 267.003z"/>
<path fill="#E6E7E8" d="M372.758 61.016l-230.78 399.72c36.271 23.6 79.5 37.5 126 37.5 c127.712 0 231.253-103.53 231.253-231.248C499.274 177 447.8 99.2 372.8 61.016z"/>
<path fill="#EF3E24" d="M463.909 267.002c0 108.185-87.706 195.884-195.888 195.884c-108.186 0-195.888-87.698-195.888-195.884 S159.836 71.1 268 71.115C376.203 71.1 463.9 158.8 463.9 267.002z"/>
<path fill="#EF3E24" d="M343.532 446.921c8.185-4.921 16.919-9.299 26.207-13.104C361.566 438.7 352.8 443.1 343.5 446.921z"/>
<path fill="#C5341C" d="M355.144 91.524l-195.521 338.65c31.043 20.7 68.3 32.7 108.4 32.7 c108.182 0 195.888-87.699 195.888-195.884C463.909 190.1 419.6 123.6 355.1 91.524z"/>
<path fill-rule="evenodd" clip-rule="evenodd" fill="#F1F2F2" d="M373.743 316.547c0 0-0.047-69.48-0.047-171.243l-0.93 1 l-163.711 23.385h-5.841v138.445c-8.938-3.602-19.156-4.445-29.143-2.648c-10.894 1.951-21.469 7.025-29.793 15 c-19.06 18.314-19.06 45 0 59.635c19.074 14.6 50 11.6 69.036-6.676c9.929-9.533 14.677-21.334 14.269-32.521h0.097 c0 0-0.031-45.562-0.043-116.914l121.702-16.985l-0.038 76.733c-18.676-7.531-42.984-2.961-58.967 12.4 c-19.051 18.297-19.051 45 0 59.617c19.066 14.6 50 11.6 69.051-6.66c9.926-9.537 14.67-21.342 14.258-32.535H373.743z"/>
<path fill="#D1D2D3" d="M227.665 312.322l-43.927 76.083c10.8-1.987 21.305-7.041 29.577-14.983 c9.929-9.533 14.677-21.334 14.269-32.521h0.097C227.681 340.9 227.7 330.7 227.7 312.322z M373.743 316.5 c0 0-0.047-69.48-0.047-171.243l-0.93 0.961l-53.653 7.664l-35.976 62.311l66.202-9.239l-0.038 76.7 c-18.676-7.531-42.984-2.961-58.967 12.391c-19.051 18.297-19.051 45 0 59.617c19.066 14.6 50 11.6 69.051-6.66 c9.926-9.537 14.67-21.342 14.258-32.535H373.743z"/>
</svg>
